<svg width="21" height="23" viewBox="0 0 21 23" xmlns="http://www.w3.org/2000/svg">
<path id="color-transform" d="M8.14367 19.479C8.40817 19.3996 8.55826 19.1209 8.47891 18.8564C8.39956 18.5919 8.12082 18.4418 7.85633 18.5211L8.14367 19.479ZM1.12127 15.515C0.85337 15.448 0.581903 15.6109 0.514929 15.8788C0.447954 16.1467 0.610835 16.4182 0.878732 16.4851L1.12127 15.515ZM14.5 22.0001C14.5 22.2762 14.7239 22.5001 15 22.5001C15.2761 22.5001 15.5 22.2762 15.5 22.0001H14.5ZM15 18.1301L14.5015 18.0908C14.5005 18.1039 14.5 18.117 14.5 18.1301H15ZM14.06 15.5201L14.0046 15.0231C13.815 15.0443 13.654 15.1715 13.5895 15.351C13.5249 15.5305 13.5682 15.7311 13.701 15.8681L14.06 15.5201ZM20.5 8.52006H21V8.51997L20.5 8.52006ZM19 4.77006L18.5316 4.59524C18.4647 4.77451 18.5059 4.97624 18.6379 5.11482L19 4.77006ZM18.91 1.00006L19.3696 0.803085C19.311 0.666459 19.1947 0.562972 19.0522 0.520702L18.91 1.00006ZM15 2.48006L14.8692 2.96265C15.0089 3.00051 15.1582 2.97598 15.2784 2.89538L15 2.48006ZM8 2.48006L7.7216 2.89538C7.84183 2.97598 7.99109 3.00051 8.13079 2.96265L8 2.48006ZM4.09 1.00006L3.94782 0.520702C3.80531 0.562972 3.68899 0.666459 3.63043 0.803085L4.09 1.00006ZM4 4.77006L4.36213 5.11483C4.49407 4.97624 4.53535 4.77451 4.46844 4.59524L4 4.77006ZM2.5 8.55006H3.00001L2.99999 8.5474L2.5 8.55006ZM8.94 15.5501L9.2993 15.8978C9.43113 15.7616 9.47458 15.5625 9.41152 15.3837C9.34847 15.205 9.18974 15.0772 9.00163 15.0539L8.94 15.5501ZM8 18.1301H8.5C8.5 18.1184 8.49959 18.1067 8.49877 18.095L8 18.1301ZM7.5 22.0001C7.5 22.2762 7.72386 22.5001 8 22.5001C8.27614 22.5001 8.5 22.2762 8.5 22.0001H7.5ZM7.85633 18.5211C6.66318 18.8791 5.81768 18.894 5.19207 18.7476C4.57289 18.6027 4.12054 18.2885 3.72855 17.8965C3.52975 17.6977 3.34819 17.4806 3.16615 17.2526C2.99027 17.0323 2.80141 16.7853 2.615 16.5665C2.23996 16.1262 1.7792 15.6795 1.12127 15.515L0.878732 16.4851C1.2208 16.5706 1.51004 16.8114 1.85375 17.2149C2.02672 17.418 2.18942 17.6319 2.38464 17.8765C2.57368 18.1133 2.78275 18.3649 3.02145 18.6036C3.50446 19.0866 4.11461 19.5224 4.96418 19.7213C5.80732 19.9186 6.83682 19.871 8.14367 19.479L7.85633 18.5211ZM15.5 22.0001V18.1301H14.5V22.0001H15.5ZM15.4985 18.1693C15.5856 17.0616 15.1924 15.9698 14.419 15.172L13.701 15.8681C14.2746 16.4597 14.5662 17.2694 14.5015 18.0908L15.4985 18.1693ZM14.1154 16.017C15.7135 15.8389 17.446 15.4401 18.7793 14.319C20.1369 13.1775 21 11.3582 21 8.52006H20C20 11.1419 19.2131 12.6476 18.1357 13.5536C17.034 14.48 15.5465 14.8513 14.0046 15.0231L14.1154 16.017ZM21 8.51997C20.9997 6.99547 20.4133 5.52944 19.3621 4.4253L18.6379 5.11482C19.5121 6.03308 19.9998 7.2523 20 8.52015L21 8.51997ZM19.4684 4.94488C19.9693 3.60292 19.9338 2.11961 19.3696 0.803085L18.4504 1.19703C18.9134 2.2772 18.9425 3.49421 18.5316 4.59524L19.4684 4.94488ZM18.91 1.00006C19.0522 0.520702 19.0517 0.520558 19.0512 0.520413C19.051 0.520363 19.0505 0.520218 19.0502 0.520118C19.0495 0.51992 19.0488 0.519717 19.0481 0.519511C19.0467 0.519098 19.0452 0.51867 19.0436 0.518228C19.0404 0.517344 19.0369 0.516403 19.0332 0.515416C19.0256 0.513442 19.0169 0.511284 19.0069 0.509021C18.987 0.504493 18.9623 0.499555 18.9327 0.494835C18.8735 0.485385 18.795 0.47686 18.6967 0.474155C18.4999 0.468739 18.2261 0.486727 17.8704 0.565694C17.1599 0.723429 16.1253 1.12378 14.7216 2.06474L15.2784 2.89538C16.6047 2.00634 17.5251 1.66669 18.0871 1.54193C18.3677 1.47964 18.5594 1.47076 18.6692 1.47378C18.7242 1.47529 18.7593 1.47981 18.7752 1.48236C18.7832 1.48363 18.7865 1.48443 18.7852 1.48413C18.7846 1.48398 18.7828 1.48357 18.7799 1.48281C18.7784 1.48243 18.7767 1.48196 18.7747 1.4814C18.7737 1.48112 18.7726 1.48081 18.7715 1.48048C18.7709 1.48032 18.7703 1.48015 18.7697 1.47997C18.7694 1.47988 18.7689 1.47974 18.7688 1.4797C18.7683 1.47956 18.7678 1.47942 18.91 1.00006ZM15.1308 1.99747C12.7532 1.35308 10.2468 1.35308 7.86921 1.99747L8.13079 2.96265C10.3371 2.36468 12.6629 2.36468 14.8692 2.96265L15.1308 1.99747ZM8.2784 2.06474C6.87468 1.12378 5.84012 0.723429 5.12961 0.565694C4.77391 0.486727 4.50007 0.468739 4.30327 0.474155C4.20501 0.47686 4.12654 0.485385 4.06729 0.494835C4.03769 0.499555 4.01297 0.504493 3.99306 0.509021C3.98311 0.511284 3.97436 0.513442 3.96682 0.515416C3.96305 0.516403 3.95959 0.517344 3.95642 0.518228C3.95483 0.51867 3.95333 0.519098 3.95189 0.519511C3.95118 0.519717 3.95048 0.51992 3.9498 0.520118C3.94946 0.520218 3.94896 0.520363 3.94879 0.520413C3.9483 0.520558 3.94782 0.520702 4.09 1.00006C4.23218 1.47942 4.23171 1.47956 4.23123 1.4797C4.23108 1.47974 4.23061 1.47988 4.23031 1.47997C4.2297 1.48015 4.22911 1.48032 4.22854 1.48048C4.22739 1.48081 4.22632 1.48112 4.22531 1.4814C4.2233 1.48196 4.22157 1.48243 4.22011 1.48281C4.2172 1.48357 4.21542 1.48398 4.21478 1.48413C4.21349 1.48443 4.21678 1.48363 4.22478 1.48236C4.24072 1.47981 4.27577 1.47529 4.33079 1.47378C4.44056 1.47076 4.63234 1.47964 4.91289 1.54193C5.47488 1.66669 6.39532 2.00634 7.7216 2.89538L8.2784 2.06474ZM3.63043 0.803085C3.06616 2.11962 3.03075 3.60292 3.53156 4.94488L4.46844 4.59524C4.05754 3.49421 4.0866 2.2772 4.54957 1.19703L3.63043 0.803085ZM3.63787 4.42529C2.57886 5.53762 1.99184 7.0169 2.00001 8.55272L2.99999 8.5474C2.9932 7.27014 3.4814 6.0399 4.36213 5.11483L3.63787 4.42529ZM2 8.55006C2 11.3698 2.86413 13.1783 4.22071 14.319C5.55221 15.4386 7.28277 15.8481 8.87837 16.0462L9.00163 15.0539C7.45723 14.8621 5.96779 14.4815 4.86429 13.5536C3.78587 12.6468 3 11.1503 3 8.55006H2ZM8.5807 15.2023C7.8166 15.9919 7.42414 17.0691 7.50123 18.1651L8.49877 18.095C8.4416 17.2821 8.73264 16.4833 9.2993 15.8978L8.5807 15.2023ZM7.5 18.1301V22.0001H8.5V18.1301H7.5Z" />
</svg>
