<svg width="21" height="21" viewBox="0 0 21 21" fill="none" xmlns="http://www.w3.org/2000/svg">
<path fill-rule="evenodd" clip-rule="evenodd" d="M1.75 6.75C1.75 3.98858 3.98858 1.75 6.75 1.75H14.25C17.0114 1.75 19.25 3.98858 19.25 6.75V14.25C19.25 17.0114 17.0114 19.25 14.25 19.25H6.75C3.98858 19.25 1.75 17.0114 1.75 14.25V6.75Z" stroke="white" stroke-width="1" stroke-linecap="round" stroke-linejoin="round"/>
<path fill-rule="evenodd" clip-rule="evenodd" d="M14 9.94875C14.2215 11.4424 13.4601 12.9096 12.1114 13.5885C10.7627 14.2673 9.13067 14.0047 8.06298 12.937C6.9953 11.8693 6.73268 10.2373 7.41154 8.88858C8.09039 7.53985 9.55765 6.77852 11.0512 7C12.5764 7.22615 13.7738 8.42365 14 9.94875Z" stroke="white" stroke-width="1" stroke-linecap="round" stroke-linejoin="round"/>
</svg>
