<svg width="24" height="22" viewBox="0 0 24 22" fill="none" xmlns="http://www.w3.org/2000/svg">
<path d="M3.88 1C3.064 1 2.344 1.24 1.864 1.672C1.384 2.104 1 2.68 1 3.352C1 4.648 2.2 5.704 3.736 5.752C3.784 5.752 3.832 5.752 3.88 5.752C4.744 5.752 5.416 5.512 5.944 5.08C6.472 4.648 6.76 4.024 6.76 3.352C6.76 3.352 6.76 3.352 6.76 3.304C6.664 2.008 5.512 1 3.88 1ZM3.88 1.96C5.128 1.96 5.752 2.584 5.8 3.4C5.8 3.784 5.656 4.12 5.32 4.408C5.032 4.648 4.552 4.84 3.88 4.84C2.632 4.84 1.96 4.168 1.96 3.352C1.96 2.968 2.104 2.632 2.44 2.392C2.776 2.152 3.256 1.96 3.88 1.96ZM1.48 6.76C1.192 6.76 1 6.952 1 7.24V21.16C1 21.448 1.192 21.64 1.48 21.64H6.28C6.568 21.64 6.76 21.448 6.76 21.16V16.696V7.24C6.76 6.952 6.568 6.76 6.28 6.76H1.48ZM8.68 6.76C8.392 6.76 8.2 6.952 8.2 7.24V21.16C8.2 21.448 8.392 21.64 8.68 21.64H13.48C13.768 21.64 13.96 21.448 13.96 21.16V13.48V13.384V13.288C13.96 12.376 14.728 11.608 15.64 11.608C16.552 11.608 17.32 12.376 17.32 13.288V21.16C17.32 21.448 17.512 21.64 17.8 21.64H22.6C22.888 21.64 23.08 21.448 23.08 21.16V13C23.08 11.032 22.504 9.448 21.496 8.392C20.488 7.336 19.144 6.76 17.656 6.76C15.784 6.76 14.632 7.432 13.912 8.008V7.24C13.912 6.952 13.72 6.76 13.432 6.76H8.68ZM1.96 7.72H5.8V16.696V20.68H1.96V7.72ZM9.16 7.72H13V8.968C13 9.256 13.192 9.448 13.48 9.448C13.624 9.448 13.768 9.4 13.816 9.304C13.816 9.304 15.256 7.72 17.656 7.72C18.904 7.72 19.96 8.152 20.776 9.016C21.592 9.88 22.12 11.224 22.12 13V20.68H18.28V13.24C18.28 13.192 18.28 13.096 18.232 13.048C18.136 11.704 17.032 10.6 15.64 10.6C14.2 10.6 13 11.8 13 13.24V13.336V13.48V20.68H9.16V7.72Z" stroke="#F3F3F3" stroke-width="0.02" stroke-miterlimit="10"/>
</svg>
