<svg width="22" height="22" viewBox="0 0 22 22" fill="none" xmlns="http://www.w3.org/2000/svg">
<path fill-rule="evenodd" clip-rule="evenodd" d="M11 15C13.2091 15 15 13.2091 15 11C15 8.79086 13.2091 7 11 7C8.79086 7 7 8.79086 7 11C7 13.2091 8.79086 15 11 15Z" stroke-linecap="round" stroke-linejoin="round"/>
<path d="M15 11V12C15 13.6568 16.3431 15 18 15C19.6568 15 21 13.6568 21 12V11C20.9997 6.35289 17.7981 2.3184 13.2726 1.26228C8.74712 0.206166 4.09046 2.40678 2.03324 6.57371C-0.0239878 10.7406 1.06043 15.7756 4.65061 18.7263C8.24079 21.6769 13.3905 21.7654 17.08 18.94" stroke-linecap="round" stroke-linejoin="round"/>
</svg>
